<svg width="132" height="132" viewBox="0 0 132 132" fill="none" xmlns="http://www.w3.org/2000/svg">
<circle cx="66" cy="66" r="66" fill="#4F46E5"/>
<path d="M47.7546 46.5C43.9213 44.8333 36.0546 41 35.2546 39C38.088 36.3333 44.1546 30.9 45.7546 30.5C47.7546 30 43.2546 31 56.2546 26.5C55.588 29.5 55.2546 36.6 59.2546 41C57.9213 36.5 57.3546 26.8 65.7546 24C69.2546 24.1667 75.6546 27.8 73.2546 41C74.588 40.1667 77.0546 36.1 76.2546 26.5C81.9213 28.1667 94.0546 33.2 97.2546 40C93.8297 42.1406 87.3254 46.0408 85.024 46.8668C87.163 46.8426 93.0416 46.7295 99.7546 43C101.755 43 106.155 43.8 107.755 47C110.755 53.6667 114.855 70.4 107.255 84C103.255 87.5 92.3546 94.7 80.7546 95.5C84.088 95.8333 91.4546 96.3 94.2546 95.5C85.2546 103.833 61.1546 115.4 36.7546 95C40.088 95.3333 47.5546 95.9 50.7546 95.5C41.1546 95.9 28.7546 87 23.7546 82.5C16.9546 68.9 20.9213 52.8333 23.7546 46.5C25.3546 44.1 30.088 42.8333 32.2546 42.5C42.6546 46.5 46.9213 46.8333 47.7546 46.5Z" fill="#FFFCFC"/>
<path d="M49.7546 87.5L57.2546 60.5H61.2546L53.7546 87.5H49.7546ZM47.7546 46.5C43.9213 44.8333 36.0546 41 35.2546 39C38.088 36.3333 44.1546 30.9 45.7546 30.5C47.7546 30 43.2546 31 56.2546 26.5C55.588 29.5 55.2546 36.6 59.2546 41C57.9213 36.5 57.3546 26.8 65.7546 24C69.2546 24.1667 75.6546 27.8 73.2546 41C74.588 40.1667 77.0546 36.1 76.2546 26.5C81.9213 28.1667 94.0546 33.2 97.2546 40C93.2546 42.5 85.0546 47.4 84.2546 47C83.2546 46.5 90.7546 48 99.7546 43C101.755 43 106.155 43.8 107.755 47C110.755 53.6667 114.855 70.4 107.255 84C103.255 87.5 92.3546 94.7 80.7546 95.5C84.088 95.8333 91.4546 96.3 94.2546 95.5C85.2546 103.833 61.1546 115.4 36.7546 95C40.088 95.3333 47.5546 95.9 50.7546 95.5C41.1546 95.9 28.7546 87 23.7546 82.5C16.9546 68.9 20.9213 52.8333 23.7546 46.5C25.3546 44.1 30.088 42.8333 32.2546 42.5C42.6546 46.5 46.9213 46.8333 47.7546 46.5Z" stroke="black"/>
<path d="M63.2546 58C49.6546 58.4 33.9213 52.1667 27.7546 49C22.9546 61.4 25.7546 75.1667 27.7546 80.5C34.088 85.3333 48.7546 93.9 56.7546 89.5C66.7546 84 73.2546 87.5 75.7546 90C77.7546 92 84.588 90.5 87.7546 89.5C90.1546 89.9 99.4213 83.6667 103.755 80.5C108.955 67.7 105.921 54.8333 103.755 50C99.2546 55.5 80.2546 57.5 63.2546 58Z" fill="#4F46E5" stroke="black"/>
<path d="M35.7546 82L42.7546 58C55.2546 60 53.7546 59 53.7546 60C53.7546 61 48.2546 85.5 46.2546 86.5C44.6546 87.3 38.588 83.8333 35.7546 82Z" fill="white" stroke="black"/>
<path d="M50 87L57.5 60H61.5L54 87H50Z" fill="white" stroke="black"/>
</svg>
