<svg width="74" height="74" viewBox="0 0 74 74" fill="none" xmlns="http://www.w3.org/2000/svg">
<path fill-rule="evenodd" clip-rule="evenodd" d="M74 37C74 57.4345 57.4345 74 37 74C16.5655 74 0 57.4345 0 37C0 16.5655 16.5655 0 37 0C57.4345 0 74 16.5655 74 37ZM33.7052 21.5002L37.2046 11L37.2052 22.5C36.7052 22.1667 35.3052 21.5001 33.7052 21.5002ZM27.0004 23.0538L19 15.5542L24.0005 25.5539C24.3338 25.0539 25.4004 23.8539 27.0004 23.0538ZM22 40L14.5 48L24.5 43C24 42.6667 22.8 41.6 22 40ZM10 30L20.5 33.5C20.5 31.9 21.1667 30.5 21.5 30H10ZM50.2107 36.5C50.2107 45.0604 43.2711 52 34.7107 52C31.0345 52 27.6572 50.7202 25 48.5818C27.416 56.9112 35.1023 63 44.2107 63C55.2564 63 64.2107 54.0457 64.2107 43C64.2107 31.9543 55.2564 23 44.2107 23C43.622 23 43.0393 23.0254 42.4635 23.0753C47.0949 25.7557 50.2107 30.764 50.2107 36.5ZM33 45C39.0751 45 44 40.0751 44 34C44 27.9249 39.0751 23 33 23C26.9249 23 22 27.9249 22 34C22 40.0751 26.9249 45 33 45Z" fill="#4F46E5"/>
</svg>
