<svg width="20" height="20" viewBox="0 0 20 20" fill="none" xmlns="http://www.w3.org/2000/svg">
<path fill-rule="evenodd" clip-rule="evenodd" d="M3.172 5.17202C3.92211 4.42214 4.93934 4.00087 6 4.00087C7.06066 4.00087 8.07789 4.42214 8.828 5.17202L10 6.34302L11.172 5.17202C11.541 4.78998 11.9824 4.48525 12.4704 4.27561C12.9584 4.06598 13.4833 3.95563 14.0144 3.95102C14.5455 3.9464 15.0722 4.04761 15.5638 4.24873C16.0554 4.44986 16.502 4.74687 16.8776 5.12244C17.2532 5.49801 17.5502 5.94462 17.7513 6.4362C17.9524 6.92779 18.0536 7.45451 18.049 7.98562C18.0444 8.51674 17.934 9.04162 17.7244 9.52964C17.5148 10.0177 17.21 10.459 16.828 10.828L10 17.657L3.172 10.828C2.42212 10.0779 2.00085 9.06068 2.00085 8.00002C2.00085 6.93936 2.42212 5.92213 3.172 5.17202Z" fill="#3F3F46"/>
</svg>
