<svg width="29" height="29" viewBox="0 0 29 29" fill="none" xmlns="http://www.w3.org/2000/svg">
<path d="M25.0748 19.2748C22.9267 20.2465 20.5334 20.5405 18.214 20.1177C15.8945 19.6949 13.7589 18.5753 12.0918 16.9082C10.4246 15.241 9.30509 13.1055 8.88228 10.786C8.45946 8.46654 8.75347 6.0733 9.72512 3.92514C8.01494 4.69801 6.51777 5.87422 5.36208 7.35288C4.20638 8.83154 3.42666 10.5685 3.08979 12.4147C2.75293 14.261 2.86898 16.1614 3.428 17.9529C3.98702 19.7444 4.97232 21.3736 6.29935 22.7006C7.62639 24.0276 9.25556 25.0129 11.0471 25.572C12.8386 26.131 14.739 26.247 16.5852 25.9102C18.4315 25.5733 20.1684 24.7936 21.6471 23.6379C23.1257 22.4822 24.302 20.985 25.0748 19.2748V19.2748Z" fill="#CC2D4A"/>
</svg>
