<svg width="20" height="20" viewBox="0 0 20 20" fill="none" xmlns="http://www.w3.org/2000/svg">
<path d="M10.707 2.29303C10.5195 2.10556 10.2652 2.00024 10 2.00024C9.73488 2.00024 9.48057 2.10556 9.29304 2.29303L2.29304 9.29303C2.11088 9.48163 2.01009 9.73423 2.01237 9.99643C2.01465 10.2586 2.11981 10.5094 2.30522 10.6948C2.49063 10.8803 2.74144 10.9854 3.00364 10.9877C3.26584 10.99 3.51844 10.8892 3.70704 10.707L4.00004 10.414V17C4.00004 17.2652 4.1054 17.5196 4.29293 17.7071C4.48047 17.8947 4.73482 18 5.00004 18H7.00004C7.26526 18 7.51961 17.8947 7.70715 17.7071C7.89468 17.5196 8.00004 17.2652 8.00004 17V15C8.00004 14.7348 8.1054 14.4805 8.29293 14.2929C8.48047 14.1054 8.73482 14 9.00004 14H11C11.2653 14 11.5196 14.1054 11.7071 14.2929C11.8947 14.4805 12 14.7348 12 15V17C12 17.2652 12.1054 17.5196 12.2929 17.7071C12.4805 17.8947 12.7348 18 13 18H15C15.2653 18 15.5196 17.8947 15.7071 17.7071C15.8947 17.5196 16 17.2652 16 17V10.414L16.293 10.707C16.4816 10.8892 16.7342 10.99 16.9964 10.9877C17.2586 10.9854 17.5095 10.8803 17.6949 10.6948C17.8803 10.5094 17.9854 10.2586 17.9877 9.99643C17.99 9.73423 17.8892 9.48163 17.707 9.29303L10.707 2.29303Z" fill="#3F3F46"/>
</svg>
