<svg width="24" height="24" viewBox="0 0 24 24" fill="none" xmlns="http://www.w3.org/2000/svg">
<path d="M19.5 9.99998C17.017 9.99998 15 12.015 15 14.5C15 16.985 17.017 19 19.5 19C21.983 19 24 16.985 24 14.5C24 12.015 21.983 9.99998 19.5 9.99998ZM22 15H20V17H19V15H17V14H19V12H20V14H22V15ZM15.473 19.593C14.365 20.679 13.198 21.812 12 23C5.57 16.619 0 11.853 0 7.19198C0 0.422979 8.852 -1.15402 12 4.24798C15.125 -1.11402 24 0.399979 24 7.19198C24 7.93798 23.844 8.68798 23.577 9.44498C22.461 8.54298 21.043 7.99998 19.5 7.99998C15.916 7.99998 13 10.916 13 14.5C13 16.563 13.97 18.401 15.473 19.593Z" fill="#EA0031"/>
</svg>
