<svg width="103" height="237" viewBox="0 0 103 237" fill="none" xmlns="http://www.w3.org/2000/svg">
<path fill-rule="evenodd" clip-rule="evenodd" d="M6.68803 131.29L50 0V139.23C41.0258 139.991 33.9794 147.516 33.9794 156.688C33.9794 166.364 41.8236 174.208 51.5 174.208C61.1764 174.208 69.0206 166.364 69.0206 156.688C69.0206 147.86 62.4922 140.557 54 139.344V0L99.6518 138.382C101.815 144.07 103 150.24 103 156.688C103 179.359 88.3499 198.609 68 205.488V236.938H35V205.488C14.6501 198.609 0 179.359 0 156.688C0 147.452 2.43101 138.784 6.68803 131.29Z" fill="#A969B9"/>
</svg>
