<svg width="109" height="109" viewBox="0 0 109 109" fill="none" xmlns="http://www.w3.org/2000/svg">
<circle cx="54.5" cy="54.5" r="54.5" fill="white"/>
<path fill-rule="evenodd" clip-rule="evenodd" d="M41.3982 40.9903C41.2663 40.9967 41.1335 41 41 41C36.5817 41 33 37.4183 33 33C33 28.5817 36.5817 25 41 25C43.9611 25 46.5465 26.6088 47.9297 29H65.0703C66.4535 26.6088 69.0389 25 72 25C76.4183 25 80 28.5817 80 33C80 37.4183 76.4183 41 72 41C69.0012 41 66.3877 39.35 65.018 36.9083H48.5003L62.1244 50.5324C63.0168 50.1885 63.9864 50 65 50C69.4183 50 73 53.5817 73 58C73 62.4183 69.4183 66 65 66C62.4452 66 60.1701 64.8024 58.7054 62.938C58.4764 62.9787 58.2407 63 58 63H45L45 72.0703C47.3912 73.4535 49 76.0389 49 79C49 83.4183 45.4183 87 41 87C36.5817 87 33 83.4183 33 79C33 76.0389 34.6088 73.4535 37 72.0703L37 59.0028V59C37 58.8619 37.007 58.7255 37.0207 58.591C37.2255 56.574 38.9289 55 41 55H55.408L41.3982 40.9903Z" fill="black"/>
</svg>
