<svg width="74" height="74" viewBox="0 0 74 74" fill="none" xmlns="http://www.w3.org/2000/svg">
<path fill-rule="evenodd" clip-rule="evenodd" d="M37 74C57.4345 74 74 57.4345 74 37C74 16.5655 57.4345 0 37 0C16.5655 0 0 16.5655 0 37C0 57.4345 16.5655 74 37 74ZM37.8157 59C25.2149 59 15 48.7834 15 36.1805C15 26.5851 20.9213 18.373 29.3085 15C28.2618 17.6182 27.6754 20.5107 27.6754 23.5027C27.6754 36.1057 37.8902 46.3222 50.491 46.3222C53.4966 46.3222 56.3721 45.7269 59 44.6706C55.6322 53.0689 47.4165 59 37.8157 59Z" fill="#4F46E5"/>
</svg>
