<svg width="109" height="109" viewBox="0 0 109 109" fill="none" xmlns="http://www.w3.org/2000/svg">
<path fill-rule="evenodd" clip-rule="evenodd" d="M54.5 109C84.5995 109 109 84.5995 109 54.5C109 24.4005 84.5995 0 54.5 0C24.4005 0 0 24.4005 0 54.5C0 84.5995 24.4005 109 54.5 109ZM41 41C41.1335 41 41.2663 40.9967 41.3982 40.9903L55.408 55H41C38.9289 55 37.2255 56.574 37.0207 58.591C37.007 58.7255 37 58.8619 37 59V59.0028V72.0703C34.6088 73.4535 33 76.0389 33 79C33 83.4183 36.5817 87 41 87C45.4183 87 49 83.4183 49 79C49 76.0389 47.3912 73.4535 45 72.0703V63H58C58.2407 63 58.4764 62.9787 58.7054 62.938C60.1701 64.8024 62.4452 66 65 66C69.4183 66 73 62.4183 73 58C73 53.5817 69.4183 50 65 50C63.9864 50 63.0168 50.1885 62.1244 50.5324L48.5003 36.9083H65.018C66.3877 39.35 69.0012 41 72 41C76.4183 41 80 37.4183 80 33C80 28.5817 76.4183 25 72 25C69.0389 25 66.4535 26.6088 65.0703 29H47.9297C46.5465 26.6088 43.9611 25 41 25C36.5817 25 33 28.5817 33 33C33 37.4183 36.5817 41 41 41Z" fill="#F7F7F7"/>
</svg>
