<svg width="74" height="74" viewBox="0 0 74 74" fill="none" xmlns="http://www.w3.org/2000/svg">
<path fill-rule="evenodd" clip-rule="evenodd" d="M74 37C74 57.4345 57.4345 74 37 74C16.5655 74 0 57.4345 0 37C0 16.5655 16.5655 0 37 0C57.4345 0 74 16.5655 74 37ZM36.9062 15.9688C36.8633 15.9766 36.8203 15.9883 36.7812 16C36.3164 16.1055 35.9883 16.5234 36 17V23C35.9961 23.3594 36.1836 23.6953 36.4961 23.8789C36.8086 24.0586 37.1914 24.0586 37.5039 23.8789C37.8164 23.6953 38.0039 23.3594 38 23V17C38.0117 16.7109 37.8945 16.4336 37.6875 16.2383C37.4766 16.0391 37.1914 15.9414 36.9062 15.9688ZM22.6562 21.8438C22.2812 21.9102 21.9805 22.1836 21.875 22.5469C21.7695 22.9141 21.8789 23.3047 22.1562 23.5625L26.4062 27.8125C26.6484 28.1094 27.0352 28.2461 27.4102 28.1602C27.7812 28.0742 28.0742 27.7812 28.1602 27.4102C28.2461 27.0352 28.1094 26.6484 27.8125 26.4062L23.5625 22.1562C23.3555 21.9336 23.0547 21.8203 22.75 21.8438H22.6562ZM51.0312 21.8438C50.8047 21.875 50.5938 21.9883 50.4375 22.1562L46.1875 26.4062C45.8906 26.6484 45.7539 27.0352 45.8398 27.4102C45.9258 27.7812 46.2188 28.0742 46.5898 28.1602C46.9648 28.2461 47.3516 28.1094 47.5938 27.8125L51.8438 23.5625C52.1562 23.2656 52.2461 22.8008 52.0625 22.4102C51.875 22.0156 51.4609 21.7891 51.0312 21.8438ZM36.9062 27C36.875 27.0078 36.8438 27.0195 36.8125 27.0312C36.75 27.0352 36.6875 27.0469 36.625 27.0625L36.5938 27.0938C31.2891 27.3203 27 31.6406 27 37C27 42.5039 31.4961 47 37 47C42.5039 47 47 42.5039 47 37C47 31.6602 42.7461 27.3555 37.4688 27.0938C37.4512 27.0938 37.4365 27.0859 37.4219 27.0781C37.4072 27.0703 37.3926 27.0625 37.375 27.0625C37.2734 27.0234 37.168 27.0039 37.0625 27H37H36.9062ZM36.9375 29H37C32.5817 29 29 32.5817 29 37C29 32.6016 32.5469 29.0352 36.9375 29ZM37 45C41.4219 45 45 41.4219 45 37C45 41.4183 41.4183 45 37 45ZM44.8397 35.3989C44.098 31.7478 40.8699 29 37 29H37.0938C40.9219 29.0444 44.104 31.7775 44.8397 35.3989ZM16.7188 36C16.168 36.0781 15.7812 36.5898 15.8594 37.1406C15.9375 37.6914 16.4492 38.0781 17 38H23C23.3594 38.0039 23.6953 37.8164 23.8789 37.5039C24.0586 37.1914 24.0586 36.8086 23.8789 36.4961C23.6953 36.1836 23.3594 35.9961 23 36H17H16.9062H16.8125H16.7188ZM50.8125 36H50.7188C50.168 36.0781 49.7812 36.5898 49.8594 37.1406C49.9375 37.6914 50.4492 38.0781 51 38H57C57.3594 38.0039 57.6953 37.8164 57.8789 37.5039C58.0586 37.1914 58.0586 36.8086 57.8789 36.4961C57.6953 36.1836 57.3594 35.9961 57 36H51H50.9062H50.8125ZM27 45.875C26.7734 45.9062 26.5625 46.0195 26.4062 46.1875L22.1562 50.4375C21.8594 50.6797 21.7227 51.0664 21.8086 51.4414C21.8945 51.8125 22.1875 52.1055 22.5586 52.1914C22.9336 52.2773 23.3203 52.1406 23.5625 51.8438L27.8125 47.5938C28.1094 47.3086 28.1992 46.8672 28.0391 46.4883C27.8828 46.1094 27.5039 45.8672 27.0938 45.875H27ZM46.6875 45.875C46.3125 45.9414 46.0117 46.2148 45.9062 46.5781C45.8008 46.9453 45.9102 47.3359 46.1875 47.5938L50.4375 51.8438C50.6797 52.1406 51.0664 52.2773 51.4414 52.1914C51.8125 52.1055 52.1055 51.8125 52.1914 51.4414C52.2773 51.0664 52.1406 50.6797 51.8438 50.4375L47.5938 46.1875C47.4062 45.9883 47.1484 45.8789 46.875 45.875H46.7812H46.6875ZM36.9062 49.9688C36.8633 49.9766 36.8203 49.9883 36.7812 50C36.3164 50.1055 35.9883 50.5234 36 51V57C35.9961 57.3594 36.1836 57.6953 36.4961 57.8789C36.8086 58.0586 37.1914 58.0586 37.5039 57.8789C37.8164 57.6953 38.0039 57.3594 38 57V51C38.0117 50.7109 37.8945 50.4336 37.6875 50.2383C37.4766 50.0391 37.1914 49.9414 36.9062 49.9688Z" fill="#4F46E5"/>
</svg>
