<svg width="132" height="132" viewBox="0 0 132 132" fill="none" xmlns="http://www.w3.org/2000/svg">
<path d="M131.5 66C131.5 102.175 102.175 131.5 66 131.5C29.8253 131.5 0.5 102.175 0.5 66C0.5 29.8253 29.8253 0.5 66 0.5C102.175 0.5 131.5 29.8253 131.5 66Z" fill="white" stroke="black"/>
<path d="M49.7546 89.5L57.2546 62.5H61.2546L53.7546 89.5H49.7546ZM47.7546 48.5C43.9213 46.8333 36.0546 43 35.2546 41C38.088 38.3333 44.1546 32.9 45.7546 32.5C47.7546 32 43.2546 33 56.2546 28.5C55.588 31.5 55.2546 38.6 59.2546 43C57.9213 38.5 57.3546 28.8 65.7546 26C69.2546 26.1667 75.6546 29.8 73.2546 43C74.588 42.1667 77.0546 38.1 76.2546 28.5C81.9213 30.1667 94.0546 35.2 97.2546 42C93.2546 44.5 85.0546 49.4 84.2546 49C83.2546 48.5 90.7546 50 99.7546 45C101.755 45 106.155 45.8 107.755 49C110.755 55.6667 114.855 72.4 107.255 86C103.255 89.5 92.3546 96.7 80.7546 97.5C84.088 97.8333 91.4546 98.3 94.2546 97.5C85.2546 105.833 61.1546 117.4 36.7546 97C40.088 97.3333 47.5546 97.9 50.7546 97.5C41.1546 97.9 28.7546 89 23.7546 84.5C16.9546 70.9 20.9213 54.8333 23.7546 48.5C25.3546 46.1 30.088 44.8333 32.2546 44.5C42.6546 48.5 46.9213 48.8333 47.7546 48.5Z" stroke="black"/>
<path d="M35.7546 84L42.7546 60C55.2546 62 53.7546 61 53.7546 62C53.7546 63 48.2546 87.5 46.2546 88.5C44.6546 89.3 38.588 85.8333 35.7546 84Z" stroke="black"/>
<path d="M63.2546 60C49.6546 60.4 33.9213 54.1667 27.7546 51C22.9546 63.4 25.7546 77.1667 27.7546 82.5C34.088 87.3333 48.7546 95.9 56.7546 91.5C66.7546 86 73.2546 89.5 75.7546 92C77.7546 94 84.588 92.5 87.7546 91.5C90.1546 91.9 99.4213 85.6667 103.755 82.5C108.955 69.7 105.921 56.8333 103.755 52C99.2546 57.5 80.2546 59.5 63.2546 60Z" stroke="black"/>
<path d="M50 89.5L57.5 62.5H61.5L54 89.5H50Z" fill="white" stroke="black"/>
</svg>
